<svg viewBox="0 0 96 96" xmlns="http://www.w3.org/2000/svg" xmlns:xlink="http://www.w3.org/1999/xlink" id="Icons_BusinessGrowth_LTR" overflow="hidden"><path d="M74 51.95 84.1 41.85 90 47.75 90 31.75 74 31.75 79.9 37.65 70 47.55 53 64.55 38 49.55 6.9 80.65 11.1 84.85 38 57.95 53 72.95 74 51.95Z"/><circle cx="18" cy="20" r="5"/><path d="M66.17 45.71 67.17 44.71 69.46 42.42 66.68 29.92C66.595 29.4772 66.3536 29.0797 66 28.8 64.8023 27.8602 63.4482 27.1392 62 26.67 59.3875 25.777 56.5525 25.777 53.94 26.67 52.4922 27.1403 51.1383 27.8613 49.94 28.8 49.594 29.0864 49.3545 29.4809 49.26 29.92L48 35.78 48 35.78 46.69 29.92C46.5983 29.4774 46.3541 29.081 46 28.8 44.8023 27.8602 43.4482 27.1392 42 26.67 37.8944 25.3449 33.3988 26.1428 30 28.8 29.654 29.0864 29.4145 29.4809 29.32 29.92L28 35.59C28 35.59 28 35.59 28 35.59L26.7 29.92C26.6002 29.4782 26.3534 29.0833 26 28.8 24.8017 27.8613 23.4478 27.1403 22 26.67 19.3875 25.777 16.5525 25.777 13.94 26.67 12.4931 27.1424 11.1396 27.8632 9.94 28.8 9.594 29.0864 9.35448 29.4809 9.26 29.92L6.08 44.44C5.79511 45.5586 6.47093 46.6963 7.5895 46.9812 7.61621 46.988 7.64304 46.9943 7.67 47 7.77978 47.0099 7.89022 47.0099 8 47 8.95634 47.0223 9.79459 46.3643 10 45.43L13 32 13 32 13 39.1 10 54 13 54 13 68.89 17 64.89 17 54 19 54 19 62.89 23 58.89 23 54 26 54 23 39.11 23 32.11 23 32.11 26 45.17C26.0885 46.2077 26.9586 47.0038 28 47L28 47C28.9339 46.9938 29.7392 46.3421 29.94 45.43L30 45 32.92 32.17C32.92 32.17 32.92 32.17 32.92 32.17L32.92 48.94 35.13 46.72C36.6912 45.157 39.2239 45.1556 40.7869 46.7169 40.7879 46.7179 40.789 46.719 40.79 46.72L43 48.85 43 32.18C43 32.18 43 32.18 43 32.18L46 45.44C46.2095 46.3703 47.0467 47.0233 48 47L48 47C48.9377 46.9985 49.7484 46.3457 49.95 45.43L52.95 32.17C52.95 32.17 52.95 32.17 52.95 32.17L52.95 58.87 52.95 58.87 56.95 54.87 56.95 48 58.95 48 58.95 52.91 62.95 48.91 62.95 32.18C62.95 32.18 62.95 32.18 62.95 32.18L66.1 45.72Z"/><circle cx="57.99" cy="20" r="5"/><circle cx="37.96" cy="20" r="5"/></svg>