<svg width="3000" height="3000" viewBox="640 474.8 1720 2170" xmlns="http://www.w3.org/2000/svg" xmlns:xlink="http://www.w3.org/1999/xlink" fill="#FFFFFF" overflow="hidden"><style>
.MsftOfcThm_Text1_Fill_v2 {
 fill:#000000; 
}
</style>
<g id="change1_1"><path d="M1085.41 2374.63 932.76 2374.63C899.62 2374.63 872.76 2347.77 872.76 2314.63L872.76 1955.41C872.76 1922.27 899.62 1895.41 932.76 1895.41L1130.78 1895.41 1130.78 2015.41 992.76 2015.41 992.76 2254.63 1085.41 2254.63 1085.41 2374.63Z" class="MsftOfcThm_Text1_Fill_v2" fill="#000000"/></g><g id="change1_2"><path d="M1178.61 2315.23C1163.08 2315.23 1148.04 2309.2 1136.76 2298.22 1123.51 2285.33 1116.95 2267.05 1118.97 2248.67L1139.69 2060.27C1141.18 2046.7 1147.25 2034.05 1156.9 2024.4L1885.06 1296.24C1896.31 1284.99 1911.57 1278.67 1927.49 1278.67 1943.41 1278.67 1958.66 1284.99 1969.92 1296.24L2133.08 1459.4C2156.51 1482.83 2156.51 1520.82 2133.08 1544.25L1404.92 2272.41C1395.66 2281.67 1383.62 2287.65 1370.65 2289.43L1186.77 2314.66C1184.05 2315.03 1181.32 2315.22 1178.61 2315.22ZM1256.67 2094.35 1246.67 2185.33 1334.35 2173.3 2005.81 1501.84 1927.5 1423.53 1256.68 2094.35Z" class="MsftOfcThm_Text1_Fill_v2" fill="#000000"/></g><g id="change1_3"><path d="M1286.68 1218.82 932.75 1218.82C899.61 1218.82 872.75 1191.96 872.75 1158.82L872.75 804.89C872.75 771.75 899.61 744.89 932.75 744.89L1173.45 744.89 1173.45 864.89 992.75 864.89 992.75 1098.82 1226.68 1098.82 1226.68 1034.08 1346.68 1034.08 1346.68 1158.82C1346.68 1191.96 1319.82 1218.82 1286.68 1218.82Z" class="MsftOfcThm_Text1_Fill_v2" fill="#000000"/></g><g id="change1_4"><path d="M1151.06 1077.57C1134.68 1077.57 1119.02 1070.88 1107.7 1059.04L1006.51 953.24 1093.23 870.3 1151 930.71 1305.14 769.13 1391.97 851.96 1194.47 1058.99C1183.16 1070.85 1167.48 1077.56 1151.09 1077.57L1151.05 1077.57Z" class="MsftOfcThm_Text1_Fill_v2" fill="#000000"/></g><g id="change1_5"><path d="M1286.68 1792.63 932.75 1792.63C899.61 1792.63 872.75 1765.77 872.75 1732.63L872.75 1378.7C872.75 1345.56 899.61 1318.7 932.75 1318.7L1173.45 1318.7 1173.45 1438.7 992.75 1438.7 992.75 1672.63 1226.68 1672.63 1226.68 1607.89 1346.68 1607.89 1346.68 1732.63C1346.68 1765.77 1319.82 1792.63 1286.68 1792.63Z" class="MsftOfcThm_Text1_Fill_v2" fill="#000000"/></g><g id="change1_6"><path d="M1151.06 1651.38C1134.68 1651.38 1119.02 1644.69 1107.7 1632.85L1006.51 1527.05 1093.23 1444.11 1151 1504.52 1305.14 1342.95 1391.97 1425.78 1194.47 1632.8C1183.16 1644.66 1167.48 1651.37 1151.09 1651.38L1151.05 1651.38Z" class="MsftOfcThm_Text1_Fill_v2" fill="#000000"/></g><g id="change1_7"><path d="M2300 2644.77 700 2644.77C666.86 2644.77 640 2617.91 640 2584.77L640 534.77C640 501.63 666.86 474.77 700 474.77L2300 474.77C2333.14 474.77 2360 501.63 2360 534.77L2360 2584.77C2360 2617.91 2333.14 2644.77 2300 2644.77ZM760 2524.77 2240 2524.77 2240 594.77 760 594.77 760 2524.77Z" class="MsftOfcThm_Text1_Fill_v2" fill="#000000"/></g></svg>